<?xml version="1.0" encoding="UTF-8"?>
<svg enable-background="new 0 0 466.2 114.3" version="1.1" viewBox="0 0 466.2 114.3" xml:space="preserve" xmlns="http://www.w3.org/2000/svg">
<style type="text/css">
	.st0{fill:none;}
	.st1{fill:#7D7D7A;}
	.st2{fill:none;stroke:#000000;stroke-width:0.5;stroke-miterlimit:10;}
	.st3{fill:none;stroke:#000000;stroke-miterlimit:10;}
	.st4{fill:#020202;}
</style>
			<path class="st0" d="m144 29.3c-0.9 0-1.7 0.3-2.4 1s-1.2 1.8-1.6 3.6c-0.4 1.7-0.7 5.1-1 10.1s-0.4 10.2-0.4 15.5c0 6 0.4 10.5 1.1 13.4 0.9 2.2 2.1 3.3 3.7 3.3 1.1 0 2-0.7 2.9-2.1s1.5-5.1 1.9-11.3c0.4-6.1 0.6-11.8 0.6-16.9 0-4.6-0.3-8.4-0.9-11.4-0.2-0.9-0.4-1.7-0.5-2.5-0.2-0.6-0.5-1-0.7-1.3-0.8-0.9-1.7-1.4-2.7-1.4z"/>
			<polygon class="st0" points="203.6 62.9 200.9 49.5 198.2 62.9"/>
			<path class="st0" d="m275.9 36.7v16.2c1.9-0.1 3.4-0.8 4.3-2.1 1.1-1.4 1.6-3.9 1.6-7.5 0-1.6-0.1-2.9-0.3-4-0.2-0.4-0.4-0.7-0.7-1-1.1-1.1-2.7-1.6-4.9-1.6z"/>
			<path class="st0" d="m307.5 35.8c-0.8 0-1.5 0.3-2.1 0.9s-1.1 1.6-1.4 3.1-0.6 4.4-0.9 8.8-0.4 8.9-0.4 13.6c0 5.1 0.3 9 0.9 11.5 0.8 1.9 1.8 2.8 3.2 2.8 0.9 0 1.8-0.6 2.6-1.8s1.3-4.5 1.7-9.9c0.3-5.4 0.5-10.3 0.5-14.8 0-4.1-0.2-7.4-0.7-10-0.1-0.7-0.3-1.4-0.4-2-0.2-0.5-0.4-0.8-0.6-1.1-0.8-0.7-1.5-1.1-2.4-1.1z"/>
			<path class="st1" d="m138.5 59.5c0-5.4 0.1-10.5 0.4-15.5s0.6-8.3 1-10.1c0.4-1.7 0.9-2.9 1.6-3.6s1.5-1 2.4-1c1 0 1.9 0.4 2.6 1.3 0.2 0.3 0.5 0.8 0.7 1.3-0.4-1.6-0.8-2.7-1.3-3.3-0.7-0.9-1.5-1.3-2.6-1.3-0.9 0-1.7 0.3-2.4 1s-1.2 1.8-1.6 3.6c-0.4 1.7-0.7 5.1-1 10.1s-0.4 10.2-0.4 15.5c0 6.7 0.4 11.5 1.3 14.3 0.1 0.4 0.2 0.7 0.4 1-0.7-2.9-1.1-7.3-1.1-13.3z"/>
			<path class="st1" d="m155.2 88.1c-1.1 0.6-2.3 0.9-3.6 0.9-2.2 0-4.5-1.4-6.8-4.1-2.4-2.8-4-4.5-4.9-5.3-3.9-1.5-6.8-4.9-8.6-10.1 1.7 6.4 4.8 10.4 9.2 12.1 0.9 0.8 2.6 2.5 4.9 5.3 2.3 2.7 4.6 4.1 6.8 4.1 1.3 0 2.5-0.3 3.6-0.9s1.7-1.2 1.7-1.8v-1.6c0-0.3-0.1-0.4-0.4-0.4h-0.2c0 0.6-0.6 1.2-1.7 1.8z"/>
			<path class="st1" d="m154.4 74.6c1.1-2.3 2-5.2 2.7-8.7s1-7.7 1-12.4c0-7.1-0.8-12.9-2.4-17.5 1.2 4.3 1.8 9.4 1.8 15.5 0 4.8-0.3 8.9-1 12.4s-1.6 6.4-2.7 8.7-2.4 3.9-3.7 5c-1.4 1.1-3 1.8-4.9 2.3 1 0.3 1.9 0.7 2.9 1.2 0.9-0.4 1.8-0.9 2.6-1.5 1.3-1.1 2.6-2.7 3.7-5z"/>
			<path class="st1" d="m163.3 34.3l-0.2-0.2v0.9c0 0.5 0.3 0.9 0.8 1.3 0.2 0.2 0.4 0.3 0.6 0.5v-0.1c0-1.1-0.4-1.8-1.2-2.4z"/>
			<path class="st1" d="m179.4 34.3l-0.2-0.2v0.9c0 0.5 0.3 0.9 0.8 1.3 0.2 0.2 0.4 0.3 0.6 0.5v-0.1c0-1.1-0.4-1.8-1.2-2.4z"/>
			<path class="st1" d="m172.8 34.3c-0.8 0.5-1.2 1.3-1.2 2.4v32.2c0 1.8 0.3 3.3 0.8 4.3-0.1-0.7-0.2-1.5-0.2-2.3v-32.2c0-1.1 0.4-1.8 1.2-2.4 0.5-0.4 0.8-0.8 0.8-1.3v-1.4c0-0.4-0.2-0.6-0.6-0.6 0 0.5-0.2 0.9-0.8 1.3z"/>
			<path class="st1" d="m187 32.9c0 0.6-0.3 1-0.8 1.4-0.8 0.5-1.2 1.3-1.2 2.4v31.3c0 3.7-0.9 6.6-2.8 8.7s-4.3 3.1-7.4 3.1-5.5-1-7.5-3.1c-0.9-0.9-1.5-2-2-3.1 0.4 2 1.3 3.7 2.6 5.1 1.9 2.1 4.4 3.1 7.5 3.1 3 0 5.5-1 7.4-3.1s2.8-5 2.8-8.7v-31.3c0-1.1 0.4-1.8 1.2-2.4 0.5-0.4 0.8-0.8 0.8-1.3v-1.4c0-0.4-0.2-0.6-0.6-0.7z"/>
			<polygon class="st1" points="200.9 49.5 200.4 47 197.2 62.9 198.2 62.9"/>
			<path class="st1" d="m196.3 66.9l-1.3 6.2c-0.1 0.3-0.1 0.5-0.1 0.6 0 0.4 0.2 0.9 0.7 1.4l1.3-6.2h7.9l-0.4-2h-8.1z"/>
			<path class="st1" d="m215.3 78.1v0.3c0 0.5-0.2 0.7-0.6 0.7h-10.4-0.2v1.2c0 0.5 0.3 0.7 0.8 0.7h10.4c0.4 0 0.6-0.2 0.6-0.7v-1.4c0-0.2-0.2-0.5-0.6-0.8z"/>
			<path class="st1" d="m213.4 75l-8.4-41.7c-0.1-0.2-0.2-0.4-0.3-0.5l8.1 40.6c0.2 0.8 0.4 1.3 0.6 1.6z"/>
			<path class="st1" d="m196.3 79.2h-6.5-0.5v1.3c0 0.5 0.4 0.7 1.1 0.7h6.5c0.6 0 0.9-0.2 0.9-0.7v-1.4c0-0.3-0.2-0.7-0.6-1v0.4c0 0.5-0.3 0.7-0.9 0.7z"/>
			<path class="st1" d="m219.8 34.6c-1 0-1.8 0.4-2.2 1.1-0.5 0.8-0.9 2.5-1.3 5.1 0 0.4-0.3 0.5-0.7 0.5h-1.2c-0.2 0-0.3 0-0.4-0.1v1.1c0 0.6 0.4 0.9 1.1 0.9h1.2c0.4 0 0.6-0.2 0.7-0.5 0.4-2.6 0.8-4.3 1.3-5.1s1.2-1.1 2.2-1.1h0.8v-2h-1.5z"/>
			<path class="st1" d="m236.3 32.3v8.1c0 0.6-0.3 0.9-0.8 0.9h-1.2c-0.3 0-0.5-0.1-0.6-0.1 0.2 0.9 0.3 1.5 0.4 1.7 0.1 0.3 0.4 0.4 0.9 0.4h1.2c0.5 0 0.8-0.3 0.8-0.9v-9.3c-0.1-0.4-0.3-0.7-0.7-0.8z"/>
			<path class="st1" d="m229.8 34.6h-1.4v38.9c0 0.8 0.2 1.4 0.6 1.9v-38.9h1.4c1 0 1.7 0.3 2.1 0.8 0.1 0.2 0.2 0.4 0.3 0.7-0.3-1.3-0.6-2.2-1-2.6-0.3-0.6-1-0.8-2-0.8z"/>
			<path class="st1" d="m229.6 79.2h-9.7-0.1v1.3c0 0.4 0.2 0.7 0.7 0.7h9.7c0.5 0 0.8-0.2 0.8-0.7v-1.4c0-0.4-0.2-0.8-0.6-1.1v0.5c0 0.5-0.3 0.7-0.8 0.7z"/>
			<path class="st1" d="m256.2 34.6h-1.4v38.9c0 0.8 0.2 1.4 0.6 1.9v-38.9h1.4c1 0 1.7 0.3 2.1 0.8 0.1 0.2 0.2 0.4 0.3 0.7-0.3-1.3-0.6-2.2-1-2.6-0.3-0.6-1-0.8-2-0.8z"/>
			<path class="st1" d="m256 79.2h-9.7-0.1v1.3c0 0.4 0.2 0.7 0.7 0.7h9.7c0.5 0 0.8-0.2 0.8-0.7v-1.4c0-0.4-0.2-0.8-0.6-1.1v0.5c0 0.5-0.2 0.7-0.8 0.7z"/>
			<path class="st1" d="m262.8 32.3v8.1c0 0.6-0.3 0.9-0.8 0.9h-1.2c-0.3 0-0.5-0.1-0.6-0.1 0.2 0.9 0.3 1.5 0.4 1.7 0.1 0.3 0.4 0.4 0.9 0.4h1.2c0.5 0 0.8-0.3 0.8-0.9v-9.3c-0.1-0.4-0.4-0.7-0.7-0.8z"/>
			<path class="st1" d="m246.3 34.6c-1 0-1.8 0.4-2.2 1.1-0.5 0.8-0.9 2.5-1.3 5.1 0 0.4-0.3 0.5-0.7 0.5h-1.2c-0.2 0-0.3 0-0.4-0.1v1.1c0 0.6 0.4 0.9 1.1 0.9h1.2c0.4 0 0.6-0.2 0.7-0.5 0.4-2.6 0.8-4.3 1.3-5.1s1.2-1.1 2.2-1.1h0.8v-2h-1.5z"/>
			<path class="st1" d="m288.6 72.3c0.2 1 0.4 1.7 0.7 2.2 0-0.1 0-0.1-0.1-0.2l-2.3-9.8c-0.2-0.8-0.4-1.4-0.6-2v0.1l2.3 9.7z"/>
			<path class="st1" d="m276.4 79.2h-9.7-0.1v1.3c0 0.4 0.2 0.7 0.7 0.7h9.7c0.5 0 0.8-0.2 0.8-0.7v-1.4c0-0.4-0.2-0.8-0.6-1.1v0.5c0 0.5-0.2 0.7-0.8 0.7z"/>
			<path class="st1" d="m291.1 77.9v0.6c0 0.5-0.2 0.7-0.7 0.7h-6.2c-0.4 0-0.7-0.2-0.9-0.4l0.4 1.4c0.2 0.7 0.5 1 1.1 1h6.2c0.5 0 0.7-0.2 0.7-0.7v-1.8c0-0.3-0.1-0.5-0.3-0.6-0.1 0-0.2-0.1-0.3-0.2z"/>
			<path class="st1" d="m280.4 55.1c0.9 0.4 1.6 0.9 2.3 1.3 4.7-2 7-5.8 7-11.4 0-2-0.3-3.8-1-5.3 0.2 1 0.4 2.1 0.4 3.3 0 6.3-2.9 10.3-8.7 12.1z"/>
			<path class="st1" d="m266.9 34.3c-0.1 0-0.1-0.1-0.2-0.2v0.9c0 0.5 0.3 0.9 0.8 1.3 0.2 0.2 0.4 0.3 0.6 0.5v-0.1c0-1-0.4-1.8-1.2-2.4z"/>
			<path class="st1" d="m275.9 36.7c2.2 0 3.9 0.6 4.9 1.7 0.3 0.3 0.5 0.6 0.7 1-0.3-1.4-0.7-2.4-1.3-3-1.1-1.1-2.7-1.7-4.9-1.7v18.2h0.6v-16.2z"/>
			<path class="st1" d="m275.3 56.6v16.8c0 0.8 0.2 1.4 0.6 1.9v-16.7c0.8 0 1.5 0.3 2.1 0.9 0.3 0.3 0.6 0.8 0.8 1.5-0.4-1.8-0.9-2.9-1.5-3.5-0.5-0.6-1.2-0.9-2-0.9z"/>
			<path class="st1" d="m319.3 54.9c0 8.3-1.1 14.5-3.3 18.7s-5.2 6.2-8.8 6.2c-4.3 0-7.5-2.2-9.7-6.5-0.4-0.8-0.7-1.7-1.1-2.6 0.5 1.7 1 3.2 1.7 4.6 2.1 4.3 5.3 6.5 9.7 6.5 3.7 0 6.6-2.1 8.8-6.2 2.2-4.2 3.3-10.4 3.3-18.7 0-6.4-0.7-11.5-2.1-15.4 1 3.6 1.5 8.1 1.5 13.4z"/>
			<path class="st1" d="m302.7 62.2c0-4.7 0.1-9.2 0.4-13.6s0.6-7.3 0.9-8.8 0.8-2.5 1.4-3.1 1.3-0.9 2.1-0.9c0.9 0 1.7 0.4 2.2 1.1 0.2 0.3 0.4 0.6 0.6 1.1-0.4-1.5-0.8-2.5-1.2-3.1-0.6-0.8-1.3-1.1-2.2-1.1-0.8 0-1.5 0.3-2.1 0.9s-1.1 1.6-1.4 3.1-0.6 4.4-0.9 8.8-0.4 8.9-0.4 13.6c0 5.8 0.4 10 1.1 12.5 0.1 0.3 0.2 0.7 0.3 0.9-0.5-2.5-0.8-6.3-0.8-11.4z"/>
			<path class="st1" d="m335 27.7c-0.9 0.4-1.3 1-1.3 2 0 0.3 0 0.6 0.1 1.1l4.7 25.3 0.1-0.7-4.2-22.7c-0.1-0.4-0.1-0.8-0.1-1.1 0-0.9 0.4-1.6 1.3-2 0.4-0.2 0.7-0.5 0.7-0.9v-2.2c0-0.4-0.2-0.5-0.6-0.6v0.8c-0.1 0.5-0.3 0.8-0.7 1z"/>
			<path class="st1" d="m338.8 78.8c-0.1 0.8-0.5 1.1-1 1.1h-1.5c-0.2 0-0.4-0.1-0.5-0.2l0.2 1.1c0.1 0.8 0.5 1.1 0.9 1.1h1.5c0.5 0 0.8-0.4 1-1.1l5.6-31-0.5-2.6-5.7 31.6z"/>
			<path class="st1" d="m339.5 27.9s-0.1 0-0.1-0.1v1.2c0 0.4 0.2 0.7 0.7 0.9 0.7 0.2 1.1 0.6 1.4 1.1l-0.2-0.9c-0.1-1.1-0.8-1.8-1.8-2.2z"/>
			<path class="st1" d="m350.1 28c-0.9 0.4-1.3 1.1-1.3 1.9 0 0.2 0 0.5 0.1 0.8l4.7 25.3 0.1-0.7-4.2-22.7c0-0.3-0.1-0.5-0.1-0.8 0-0.8 0.4-1.5 1.3-1.9 0.5-0.3 0.8-0.5 0.9-0.7s0.2-0.6 0.2-1.2v-1.3c0-0.4-0.2-0.6-0.6-0.7 0 0.6-0.1 1-0.2 1.2-0.1 0.3-0.4 0.5-0.9 0.8z"/>
			<path class="st1" d="m356.2 28.1c-0.3-0.1-0.5-0.3-0.6-0.4v0.9c0 0.6 0.4 1.1 1.2 1.5 0.4 0.2 0.7 0.4 1 0.7v-0.3c0.1-1.1-0.5-1.9-1.6-2.4z"/>
			<path class="st1" d="m365.2 26.2v0.4c0 0.4-0.3 0.9-0.9 1.3-1.1 0.7-1.8 1.8-2 3.2l-8.5 47.7c-0.1 0.8-0.5 1.1-1 1.1h-1.6c-0.2 0-0.3-0.1-0.4-0.2l0.2 1c0.1 0.8 0.4 1.1 0.8 1.1h1.6c0.5 0 0.9-0.4 1-1.1l8.5-47.7c0.3-1.4 0.9-2.5 2-3.2 0.6-0.4 0.9-0.8 0.9-1.3v-1.4c0-0.5-0.2-0.8-0.6-0.9z"/>
			<path class="st1" d="m324.4 27.8c-0.1 0-0.2-0.1-0.2-0.1v0.9c0 0.6 0.3 1 0.9 1.2s1.1 0.6 1.4 1.1l-0.2-0.8c-0.2-1.2-0.8-1.9-1.9-2.3z"/>
			<path class="st1" d="m379.3 79.2h-9.7-0.1v1.3c0 0.4 0.2 0.7 0.7 0.7h9.7c0.5 0 0.8-0.2 0.8-0.7v-1.4c0-0.4-0.2-0.8-0.6-1.1v0.5c0 0.5-0.3 0.7-0.8 0.7z"/>
			<path class="st1" d="m369.7 34.3c-0.1 0-0.1-0.1-0.2-0.2v0.9c0 0.5 0.3 0.9 0.8 1.3 0.2 0.2 0.4 0.3 0.6 0.5v-0.1c0-1-0.4-1.8-1.2-2.4z"/>
			<path class="st1" d="m380.1 32.9v0.1c0 0.5-0.3 0.9-0.8 1.3-0.8 0.6-1.2 1.4-1.2 2.4v36.7c0 0.8 0.2 1.4 0.6 1.9v-36.6c0-1 0.4-1.8 1.2-2.4 0.5-0.4 0.8-0.8 0.8-1.3v-1.4c0-0.4-0.2-0.6-0.6-0.7z"/>
			<path class="st1" d="m384.5 34.3c-0.1 0-0.1-0.1-0.2-0.2v0.9c0 0.5 0.3 0.9 0.8 1.3 0.2 0.2 0.4 0.3 0.6 0.5v-0.1c0-1-0.4-1.8-1.2-2.4z"/>
			<path class="st1" d="m400.8 34.3c-0.1 0-0.1-0.1-0.2-0.2v0.9c0 0.5 0.3 0.9 0.8 1.3 0.2 0.2 0.4 0.3 0.6 0.5v-0.1c0-1-0.4-1.8-1.2-2.4z"/>
			<path class="st1" d="m391.3 79.2h-6.9-0.1v1.3c0 0.4 0.2 0.7 0.7 0.7h6.9c0.5 0 0.8-0.2 0.8-0.7v-1.4c0-0.4-0.2-0.8-0.6-1.1v0.5c0 0.5-0.3 0.7-0.8 0.7z"/>
			<path class="st1" d="m408.5 32.9v0.1c0 0.5-0.3 0.9-0.8 1.3-0.8 0.6-1.2 1.4-1.2 2.4v41.7c0 0.7-0.3 1-0.9 1h-1.4c-0.6 0-1.1-0.3-1.3-1l-12.9-33.8v28.8c0 0.8 0.2 1.4 0.6 1.9v-28.7l12.9 33.8c0.2 0.7 0.7 1 1.3 1h1.4c0.6 0 0.9-0.3 0.9-1v-41.7c0-1 0.4-1.8 1.2-2.4 0.5-0.4 0.8-0.8 0.8-1.3v-1.4c0-0.4-0.2-0.6-0.6-0.7z"/>
			<path class="st1" d="m413 34.3c-0.1 0-0.1-0.1-0.2-0.1v0.8c0 0.5 0.3 0.9 0.8 1.2 0.2 0.1 0.4 0.3 0.5 0.5v-0.1c0-1-0.4-1.8-1.1-2.3z"/>
			<path class="st1" d="m424.3 56.4c-0.4-0.3-1-0.5-1.8-0.5h-1.2v19.6h0.6v-17.7h1.2c0.8 0 1.4 0.2 1.8 0.5 0.3 0.2 0.5 0.6 0.7 1.2 0-0.1-0.1-0.3-0.1-0.5-0.3-1.4-0.7-2.3-1.2-2.6z"/>
			<path class="st1" d="m432.8 41.3c-0.1 0.1-0.4 0.1-0.8 0.1h-1.1c-0.2 0-0.3-0.1-0.5-0.1 0.1 0.4 0.2 0.8 0.2 1.2 0.1 0.6 0.3 0.9 0.8 0.9h1.1c0.4 0 0.7 0 0.8-0.1s0.1-0.4 0.1-0.9v-9.1c0-0.3-0.2-0.5-0.6-0.5v7.7c0.1 0.4 0.1 0.7 0 0.8z"/>
			<path class="st1" d="m425.2 34.7h-3.9v17.6h0.6v-15.6h3.9c1.8 0 3 0.6 3.6 1.7 0.1 0.3 0.2 0.5 0.4 0.8-0.2-1-0.6-2-1-2.8-0.6-1.1-1.8-1.7-3.6-1.7z"/>
			<path class="st1" d="m434.2 69.3v10h-21.2-0.1v1.2c0 0.5 0.2 0.7 0.7 0.7h21.2v-11.2c0-0.4-0.2-0.7-0.6-0.7z"/>
			<path class="st1" d="m428.1 60.7h-1.4c-0.3 0-0.5-0.1-0.7-0.2l-0.1-0.1c0.1 0.2 0.1 0.4 0.2 0.7 0.2 0.8 0.4 1.3 0.5 1.4 0.1 0.2 0.3 0.2 0.7 0.2h1.4c0.5 0 0.7-0.2 0.7-0.7v-11.8c0-0.4-0.2-0.7-0.6-0.7v10.5c0.1 0.5-0.2 0.7-0.7 0.7z"/>
			<path class="st1" d="m447.1 34.2c-1.2 0-2.1 0.5-2.8 1.5s-1.1 2.1-1.1 3.4c0 1.2 0.3 2.4 0.8 3.6-0.1-0.6-0.2-1.1-0.2-1.7 0-1.3 0.4-2.5 1.1-3.4 0.7-1 1.7-1.5 2.8-1.5 1.6 0 2.9 1.3 3.9 3.8-1-3.8-2.5-5.7-4.5-5.7z"/>
			<path class="st1" d="m454.6 43.4h-1.4c-0.3 0-0.5-0.1-0.6-0.2 0.2 1.1 0.4 1.7 0.5 1.9s0.4 0.3 0.7 0.3h1.4c0.5 0 0.7-0.3 0.7-0.8v-10.2c0-0.5-0.2-0.7-0.6-0.8v9.1c0 0.5-0.3 0.7-0.7 0.7z"/>
			<path class="st1" d="m457.4 62.2c0.4 1.4 0.5 2.9 0.5 4.5 0 3.9-1 7.1-3.1 9.6s-4.5 3.7-7.3 3.7c-1.3 0-2.7-0.3-4.4-1-0.5-0.2-0.9-0.3-1.1-0.3s-0.5 0.1-0.8 0.3c-0.2 0.1-0.4 0.2-0.6 0.2h-1.6-0.2v1.2c0 0.6 0.3 0.8 0.8 0.8h1.6c0.1 0 0.3-0.1 0.6-0.2 0.3-0.2 0.6-0.3 0.8-0.3s0.6 0.1 1.1 0.3c1.7 0.7 3.2 1 4.4 1 2.8 0 5.3-1.2 7.3-3.7 2.1-2.5 3.1-5.7 3.1-9.6 0-2.3-0.3-4.4-1.1-6.5z"/>
			<path class="st1" d="m442.6 72.3c-0.2-0.6-0.3-1.3-0.4-2.1-0.2-1.4-0.4-2.2-0.5-2.5-0.1-0.1-0.1-0.2-0.2-0.2 0 0.2 0.1 0.5 0.1 0.7 0.2 1.7 0.5 3 1 4.1z"/>
			<path class="st1" d="m445.4 56.9c-2.1-2.2-3.6-4-4.5-5.2-0.8-1.1-1.5-2.3-2-3.7 0.1 0.5 0.3 1 0.4 1.5 0.5 1.6 1.3 2.9 2.2 4.2 0.9 1.2 2.4 3 4.5 5.2 2.8 2.9 4.6 5.2 5.6 6.9l0.6 1.2c-0.2-1.1-0.6-2.1-1.2-3.1-1-1.8-2.8-4.1-5.6-7z"/>
			<path d="m138 79.6c-7.3-2.8-10.9-12-10.9-27.7 0-9 1.2-16.1 3.7-21.1 2.4-5 6-7.5 10.5-7.5 4.6 0 8.2 2.5 10.7 7.5s3.7 11.9 3.7 20.7c0 4.8-0.3 8.9-1 12.4s-1.6 6.4-2.7 8.7-2.4 3.9-3.7 5c-1.4 1.1-3 1.8-4.9 2.3 2.1 0.7 4.2 1.7 6.2 3.1 1.4 0.9 2.6 1.4 3.7 1.4 0.2 0 0.5 0 1-0.1h0.4c0.3 0 0.4 0.1 0.4 0.4v1.6c0 0.6-0.6 1.3-1.7 1.8-1.1 0.6-2.3 0.9-3.6 0.9-2.2 0-4.5-1.4-6.8-4.1-2.4-2.8-4-4.6-5-5.3zm3.4-3.5c1.1 0 2-0.7 2.9-2.1s1.5-5.1 1.9-11.3c0.4-6.1 0.6-11.8 0.6-16.9 0-4.6-0.3-8.4-0.9-11.4s-1.2-4.9-1.8-5.8c-0.7-0.9-1.5-1.3-2.6-1.3-0.9 0-1.7 0.3-2.4 1s-1.2 1.8-1.6 3.6c-0.4 1.7-0.7 5.1-1 10.1s-0.4 10.2-0.4 15.5c0 6.7 0.4 11.5 1.3 14.3 0.9 2.9 2.2 4.3 4 4.3z"/>
			<path d="m183.2 68c0 3.7-0.9 6.6-2.8 8.7s-4.3 3.1-7.4 3.1c-3 0-5.5-1-7.5-3.1-1.9-2.1-2.9-4.8-2.9-8.1v-31.9c0-1.1-0.4-1.8-1.2-2.4-0.5-0.4-0.8-0.8-0.8-1.3v-1.4c0-0.5 0.3-0.7 0.8-0.7h9.7c0.5 0 0.7 0.2 0.7 0.7v1.4c0 0.5-0.3 0.9-0.8 1.3-0.8 0.5-1.2 1.3-1.2 2.4v32.2c0 4.3 1.4 6.4 4.3 6.4 3.1 0 4.7-2.5 4.7-7.6v-31c0-1.1-0.4-1.8-1.2-2.4-0.5-0.4-0.8-0.8-0.8-1.3v-1.4c0-0.5 0.3-0.7 0.8-0.7h6.9c0.5 0 0.7 0.2 0.7 0.7v1.4c0 0.5-0.3 0.9-0.8 1.3-0.8 0.5-1.2 1.3-1.2 2.4v31.3z"/>
			<path d="m196.5 37.1l-0.3-2.1c-0.1-0.7-0.1-1.1-0.1-1.1 0-0.2 0.2-0.4 0.5-0.5l5.3-2.4c0.1 0 0.2-0.1 0.3-0.1 0.3 0 0.5 0.2 0.6 0.6l8.4 42.1c0.1 0.8 0.3 1.3 0.5 1.6s0.6 0.7 1.3 1.1c0.5 0.3 0.7 0.6 0.7 1v1.4c0 0.5-0.2 0.7-0.6 0.7h-10.4c-0.6 0-0.8-0.2-0.8-0.7v-1.4c0-0.5 0.3-0.9 1-1.2 0.8-0.4 1.2-1 1.2-1.8 0-0.2 0-0.4-0.1-0.7l-1.3-6.5h-8.1l-1.3 6.2c-0.1 0.3-0.1 0.5-0.1 0.6 0 0.6 0.5 1.3 1.4 2 0.6 0.5 0.9 0.9 0.9 1.3v1.4c0 0.5-0.3 0.7-0.9 0.7h-6.6c-0.7 0-1.1-0.2-1.1-0.7v-1.6c0-0.4 0.2-0.8 0.7-1.1 0.8-0.5 1.4-1.4 1.7-2.6l7.2-36.2zm2.1 9.9l-3.2 15.9h6.4l-3.2-15.9z"/>
			<path d="m226.6 34.6v38.9c0 1.1 0.4 1.9 1.2 2.4 0.5 0.4 0.8 0.8 0.8 1.2v1.4c0 0.5-0.3 0.7-0.8 0.7h-9.7c-0.5 0-0.7-0.2-0.7-0.7v-1.5c0-0.5 0.3-0.9 0.8-1.2 0.8-0.6 1.2-1.4 1.2-2.4v-38.8h-1.4c-1 0-1.8 0.4-2.2 1.1-0.5 0.8-0.9 2.5-1.3 5.1 0 0.4-0.3 0.5-0.7 0.5h-1.2c-0.7 0-1.1-0.3-1.1-0.9v-9c0-0.7 0.3-1.1 1-1.1 0.4 0 1.1 0.1 2.2 0.2 1.7 0.3 3 0.4 3.8 0.4h11c0.6-0.1 1.2-0.2 2-0.3 1.2-0.2 1.9-0.3 2-0.3 0.6 0 0.8 0.3 0.8 0.8v9.3c0 0.6-0.3 0.9-0.8 0.9h-1.2c-0.5 0-0.8-0.1-0.9-0.4s-0.2-0.9-0.5-2c-0.4-1.8-0.8-2.9-1.1-3.5-0.4-0.5-1.1-0.8-2.1-0.8h-1.1z"/>
			<path d="m253 34.6v38.9c0 1.1 0.4 1.9 1.2 2.4 0.5 0.4 0.8 0.8 0.8 1.2v1.4c0 0.5-0.3 0.7-0.8 0.7h-9.7c-0.5 0-0.7-0.2-0.7-0.7v-1.5c0-0.5 0.3-0.9 0.8-1.2 0.8-0.6 1.2-1.4 1.2-2.4v-38.8h-1.4c-1 0-1.8 0.4-2.2 1.1-0.5 0.8-0.9 2.5-1.3 5.1 0 0.4-0.3 0.5-0.7 0.5h-1.2c-0.7 0-1.1-0.3-1.1-0.9v-9c0-0.7 0.3-1.1 1-1.1 0.4 0 1.1 0.1 2.2 0.2 1.7 0.3 3 0.4 3.8 0.4h11c0.6-0.1 1.2-0.2 2-0.3 1.2-0.2 1.9-0.3 2-0.3 0.6 0 0.8 0.3 0.8 0.8v9.3c0 0.6-0.3 0.9-0.8 0.9h-1.2c-0.5 0-0.8-0.1-0.9-0.4s-0.2-0.9-0.5-2c-0.4-1.8-0.8-2.9-1.1-3.5-0.4-0.5-1.1-0.8-2.1-0.8h-1.1z"/>
			<path d="m273.4 56.6v16.8c0 1.1 0.4 1.9 1.2 2.4 0.5 0.4 0.8 0.8 0.8 1.2v1.4c0 0.5-0.3 0.7-0.8 0.7h-9.7c-0.5 0-0.7-0.2-0.7-0.7v-1.5c0-0.5 0.3-0.9 0.8-1.2 0.8-0.6 1.2-1.4 1.2-2.4v-36.6c0-1.1-0.4-1.9-1.2-2.4-0.5-0.4-0.8-0.8-0.8-1.3v-1.4c0-0.5 0.3-0.7 0.8-0.7h8.1c4.6 0 8.1 1 10.5 3.1s3.6 5.1 3.6 9c0 6.2-2.9 10.2-8.7 12.1 1.7 0.8 3 1.8 3.9 2.8s1.6 2.6 2 4.6l2.3 9.8c0.3 1.3 0.6 2.1 0.9 2.6 0.3 0.4 0.7 0.9 1.4 1.3 0.2 0.1 0.3 0.3 0.3 0.6v1.8c0 0.5-0.2 0.7-0.7 0.7h-6.2c-0.6 0-1-0.3-1.1-1l-4.3-17.1c-0.5-1.9-1-3.1-1.5-3.7s-1.2-0.9-2.1-0.9zm0-21.9v18.2c2.2 0 3.9-0.7 4.9-2.1 1.1-1.4 1.6-3.9 1.6-7.5 0-3.5-0.5-5.8-1.6-6.9-1-1.1-2.6-1.7-4.9-1.7z"/>
			<path d="m305.3 79.8c-4.3 0-7.5-2.2-9.7-6.5-2.1-4.3-3.2-10.3-3.2-18s1.1-13.7 3.2-18.2 5.2-6.7 9.3-6.7c3.8 0 6.9 2.1 9.1 6.2s3.4 10.3 3.4 18.4c0 8.3-1.1 14.5-3.3 18.7-2.2 4-5.2 6.1-8.8 6.1zm-0.4-3.3c0.9 0 1.8-0.6 2.6-1.8s1.3-4.5 1.7-9.9c0.3-5.4 0.5-10.3 0.5-14.8 0-4.1-0.2-7.4-0.7-10s-1-4.3-1.6-5.1-1.3-1.1-2.2-1.1c-0.8 0-1.5 0.3-2.1 0.9s-1.1 1.6-1.4 3.1-0.6 4.4-0.9 8.8-0.4 8.9-0.4 13.6c0 5.8 0.4 10 1.1 12.5s1.9 3.8 3.4 3.8z"/>
			<path d="m351.7 56l4.2-24.4c0.1-0.4 0.1-0.8 0.1-1.1 0-1.1-0.5-1.9-1.6-2.4-0.8-0.4-1.2-0.9-1.2-1.5v-1.6c0-0.6 0.4-1 1.1-1h7.9c0.8 0 1.2 0.4 1.2 1.1v1.4c0 0.4-0.3 0.9-0.9 1.3-1.1 0.7-1.8 1.8-2 3.2l-8.5 47.7c-0.1 0.8-0.5 1.1-1 1.1h-1.6c-0.4 0-0.7-0.4-0.8-1.1l-5.9-31.7-5.7 31.8c-0.1 0.8-0.5 1.1-1 1.1h-1.5c-0.5 0-0.8-0.4-0.9-1.1l-9.1-48.7c-0.2-1.1-0.8-1.9-1.8-2.2-0.6-0.2-0.9-0.6-0.9-1.2v-1.7c0-0.6 0.3-0.9 1-0.9h10.4c0.4 0 0.7 0.2 0.7 0.6v2.2c0 0.4-0.2 0.7-0.7 0.9-0.9 0.4-1.3 1-1.3 2 0 0.3 0 0.6 0.1 1.1l4.7 25.3 3.7-21-0.9-4.9c-0.2-1-0.8-1.7-1.9-2.1-0.5-0.2-0.7-0.5-0.7-0.9v-2.3c0-0.5 0.2-0.7 0.6-0.7h11c0.5 0 0.8 0.2 0.8 0.7v1.3c0 0.6-0.1 1-0.2 1.2s-0.4 0.5-0.9 0.7c-0.9 0.4-1.3 1.1-1.3 1.9 0 0.2 0 0.5 0.1 0.8l4.7 25.1z"/>
			<path d="m376.3 73.4c0 1.1 0.4 1.9 1.2 2.4 0.5 0.4 0.8 0.8 0.8 1.2v1.4c0 0.5-0.3 0.7-0.8 0.7h-9.7c-0.5 0-0.7-0.2-0.7-0.7v-1.5c0-0.5 0.3-0.9 0.8-1.2 0.8-0.6 1.2-1.4 1.2-2.4v-36.6c0-1.1-0.4-1.9-1.2-2.4-0.5-0.4-0.8-0.8-0.8-1.3v-1.4c0-0.5 0.3-0.7 0.8-0.7h9.7c0.5 0 0.7 0.2 0.7 0.7v1.4c0 0.5-0.3 0.9-0.8 1.3-0.8 0.6-1.2 1.4-1.2 2.4v36.7z"/>
			<path d="m400.2 57.1v-20.4c0-1.1-0.4-1.9-1.2-2.4-0.5-0.4-0.8-0.8-0.8-1.3v-1.4c0-0.5 0.3-0.7 0.8-0.7h7c0.5 0 0.7 0.2 0.7 0.7v1.4c0 0.5-0.3 0.9-0.8 1.3-0.8 0.6-1.2 1.4-1.2 2.4v41.7c0 0.7-0.3 1-0.9 1h-1.4c-0.6 0-1.1-0.3-1.3-1l-12.9-33.8v28.8c0 1.1 0.4 1.9 1.2 2.4 0.5 0.4 0.8 0.8 0.8 1.2v1.4c0 0.5-0.3 0.7-0.8 0.7h-6.9c-0.5 0-0.7-0.2-0.7-0.7v-1.5c0-0.5 0.3-0.9 0.8-1.2 0.8-0.6 1.2-1.4 1.2-2.4v-36.6c0-1.1-0.4-1.9-1.2-2.4-0.5-0.4-0.8-0.8-0.8-1.3v-1.4c0-0.5 0.3-0.7 0.8-0.7h6.6c0.5 0 0.8 0.1 1 0.2s0.3 0.4 0.5 0.8l9.5 25.2z"/>
			<path d="m432.4 79.2h-21.2c-0.5 0-0.7-0.2-0.7-0.7v-1.4c0-0.4 0.3-0.9 1-1.4 0.6-0.5 0.9-1.2 0.9-2.2v-36.8c0-1.1-0.4-1.9-1.1-2.4-0.5-0.4-0.8-0.8-0.8-1.2v-1.5c0-0.4 0.2-0.6 0.7-0.6h15.9c0.3 0 0.8 0 1.6-0.1 0.7-0.1 1.2-0.1 1.4-0.1 0.7 0 1 0.2 1 0.6v9.1c0 0.5 0 0.8-0.1 0.9s-0.4 0.1-0.8 0.1h-1.2c-0.5 0-0.8-0.3-0.8-0.9-0.2-1.6-0.6-3-1.2-4.1s-1.8-1.7-3.6-1.7h-3.9v17.6h1.4c0.9 0 1.5-0.2 1.8-0.5s0.7-1.4 1.2-3.2c0.2-0.6 0.3-0.9 0.3-1 0.1-0.1 0.2-0.1 0.6-0.1h1.4c0.5 0 0.8 0.3 0.8 0.8v11.6c0 0.5-0.2 0.7-0.7 0.7h-1.4c-0.3 0-0.5-0.1-0.7-0.2-0.1-0.2-0.3-0.6-0.5-1.4-0.4-1.5-0.8-2.4-1.2-2.7s-1-0.5-1.8-0.5h-1.2v19.6h4.2c1.6 0 2.6-0.4 3.2-1.1s1.3-2.7 2.2-6c0.2-0.7 0.6-1.1 1.1-1.1h1.3c0.5 0 0.8 0.3 0.8 0.8v11.1z"/>
			<path d="m438.7 79.2h-1.6c-0.5 0-0.8-0.3-0.8-0.8v-11.7c0-0.8 0.3-1.2 0.8-1.2h1.3c0.4 0 0.6 0.1 0.7 0.4 0.1 0.2 0.3 1.1 0.5 2.5 0.8 5.4 2.8 8.1 5.8 8.1 1.6 0 2.8-0.7 3.7-2 0.9-1.4 1.4-3 1.4-5s-0.5-3.9-1.4-5.6c-1-1.7-2.8-4-5.6-6.9-2.1-2.2-3.6-4-4.5-5.2s-1.6-2.6-2.2-4.2c-0.5-1.6-0.8-3.3-0.8-5.1 0-3.4 0.9-6.3 2.6-8.5s3.8-3.3 6.3-3.3c1.1 0 2.4 0.3 3.7 1 0.6 0.3 1 0.4 1.2 0.4s0.4-0.1 0.7-0.3c0.2-0.1 0.6-0.2 0.9-0.2h1.1c0.6 0 0.9 0.3 0.9 0.8v10.3c0 0.5-0.2 0.8-0.7 0.8h-1.4c-0.4 0-0.6-0.1-0.7-0.3s-0.3-0.9-0.6-2.2c-1-4.5-2.6-6.7-4.7-6.7-1.2 0-2.1 0.5-2.8 1.5s-1.1 2.1-1.1 3.4c0 1.5 0.4 3.1 1.3 4.6 0.8 1.6 2.5 3.7 5 6.2 3.2 3.3 5.4 6.2 6.7 8.7 1.2 2.5 1.8 5.2 1.8 8.1 0 3.9-1 7.1-3.1 9.6s-4.5 3.7-7.3 3.7c-1.3 0-2.7-0.3-4.4-1-0.5-0.2-0.9-0.3-1.1-0.3s-0.5 0.1-0.8 0.3c-0.4 0-0.6 0.1-0.8 0.1z"/>
	<path d="m57.1 111.8c-30.3 0-55-24.7-55-55 0-30.4 24.7-55 55-55s55 24.7 55 55c0 30.4-24.7 55-55 55zm0-104c-27 0-49 22-49 49s22 49 49 49 49-22 49-49-22-49-49-49z"/>
	<path class="st2" d="m57.1 25.3c-17.4 0-31.5 14.1-31.5 31.5s14.1 31.5 31.5 31.5 31.5-14.1 31.5-31.5-14.1-31.5-31.5-31.5z"/>
	<circle cx="15.8" cy="55.1" r="1.6"/>
	<circle cx="96.5" cy="55.1" r="1.6"/>
<path class="st3" d="M57.1,90.6c-18.6,0-33.8-15.2-33.8-33.8S38.4,23,57.1,23c18.6,0,33.8,15.2,33.8,33.8S75.7,90.6,57.1,90.6z"/>
	<path d="m20.7 71.7c-0.6 0.2-1.1 0-1.5-0.5 0.1 0.7-0.1 1.3-0.8 1.5-0.9 0.3-1.5-0.3-1.8-1.2-0.1-0.4-0.3-1.1-0.5-1.5l-0.2-0.6 0.5-0.2 0.2 0.4c0.1 0 0.5-0.1 0.6-0.1l2.3-0.8c0.3-0.1 0.6-0.2 0.7-0.3l-0.1-0.4 0.5-0.1 0.2 0.6c0.1 0.3 0.4 1 0.5 1.3 0.3 0.8 0.1 1.6-0.6 1.9zm-0.7-2l-2.3 0.8c-0.3 0.1-0.7 0.2-0.7 0.3s0.1 0.3 0.1 0.4c0.2 0.5 0.6 0.7 1.1 0.5 0.6-0.2 0.6-0.6 0.5-1.1v-0.1l0.6-0.1c0.1 0.4 0.5 0.6 1.1 0.4 0.4-0.1 0.6-0.5 0.4-0.9 0-0.1-0.1-0.2-0.1-0.3-0.2-0.1-0.6 0-0.7 0.1z"/>
	<path d="m22.3 72.4l0.3 0.6 0.8 1.7c0.1 0.1 0.4 0.7 0.4 0.7l-0.1 0.2-1 0.5-0.3-0.4c0.1-0.1 0.3-0.2 0.3-0.2l0.1-0.1c0-0.1-0.1-0.3-0.2-0.5l-0.3-0.7c-0.1 0-0.4 0.2-0.5 0.2l-0.8 0.4c0 0.1 0.1 0.1 0.1 0.2l0.2 0.4 0.2 0.2 0.4-0.1 0.2 0.4s-0.4 0.2-0.5 0.2c-0.3 0.2-0.8 0.4-0.8 0.4l-0.2-0.4 0.3-0.2s-0.1-0.3-0.2-0.4l-0.1-0.2-0.1-0.2-0.8 0.4c-0.2 0.1-0.5 0.3-0.7 0.3l0.4 0.8c0.1 0.2 0.2 0.3 0.3 0.5h0.3c0.1 0 0.3-0.1 0.4-0.1l0.2 0.5-1.2 0.4-0.2-0.1s-0.3-0.6-0.3-0.7l-0.9-1.8c-0.2-0.3-0.3-0.6-0.3-0.6l0.4-0.2 0.3 0.4c0.1 0 0.4-0.1 0.6-0.2l2.2-1.1c0.3-0.2 0.6-0.3 0.7-0.4l-0.1-0.4 0.5-0.4z"/>
	<path d="m25.5 80.4c-0.5 0.3-1.1 0.2-1.5-0.2 0.3 0.6 0.2 1.3-0.4 1.7-0.8 0.5-1.6 0.1-2.1-0.7-0.2-0.4-0.6-1-0.8-1.3s-0.4-0.5-0.4-0.5l0.4-0.3 0.3 0.3c0.1 0 0.4-0.2 0.5-0.3l2-1.3c0.2-0.2 0.5-0.4 0.6-0.5l-0.1-0.4 0.5-0.3s0.1 0.3 0.3 0.6 0.7 0.9 0.8 1.2c0.5 0.7 0.5 1.6-0.1 2zm-1.2-1.8l-2 1.3c-0.3 0.2-0.6 0.4-0.7 0.5 0.1 0.1 0.1 0.2 0.2 0.3 0.3 0.4 0.7 0.5 1.2 0.2s0.5-0.8 0.2-1.2v-0.1l0.5-0.3c0.2 0.4 0.6 0.5 1.1 0.1 0.3-0.2 0.4-0.6 0.2-1-0.1-0.1-0.1-0.2-0.2-0.3 0 0.2-0.4 0.4-0.5 0.5z"/>
	<path d="m28.1 82.7l-0.3-0.3c-0.1 0-0.4 0.2-0.5 0.3l-1.9 1.5c-0.3 0.2-0.5 0.5-0.6 0.6l0.3 0.4-0.4 0.3s-0.3-0.5-0.8-1.1c-0.2-0.3-0.5-0.5-0.5-0.5l0.4-0.3 0.4 0.3c0.1 0 0.4-0.2 0.5-0.3l1.9-1.5c0.3-0.2 0.5-0.5 0.6-0.5l-0.4-0.6 0.4-0.3 0.4 0.6c0.5 0.6 0.9 1 0.9 1l-0.4 0.4z"/>
	<path d="m30.9 88.3c-1 1.1-2.3 1.2-3.5 0.1-0.3-0.3-0.7-0.8-1-1l-0.5-0.5 0.3-0.4 0.4 0.3s0.4-0.3 0.5-0.4l1.7-1.8c0.2-0.3 0.5-0.6 0.5-0.6l-0.3-0.4 0.4-0.4s0.2 0.3 0.5 0.5c0.2 0.2 0.9 0.7 1.1 1 1.1 1.2 1 2.5-0.1 3.6zm-0.8-3.5l-0.4 0.4-1.8 1.8c-0.2 0.2-0.5 0.5-0.5 0.6l0.3 0.3c0.8 0.7 1.6 0.4 2.4-0.4 0.7-0.8 1.1-1.7 0.3-2.4l-0.3-0.3z"/>
	<path d="m32.4 92.6c-1.2-0.9-1.4-2.3-0.5-3.6s2.3-1.6 3.5-0.7 1.4 2.3 0.5 3.6-2.3 1.6-3.5 0.7zm0.4-0.6c0.7 0.5 1.4 0.2 2.1-0.8 0.8-1.1 0.8-1.8 0.1-2.3s-1.4-0.2-2.1 0.9c-0.8 1-0.8 1.8-0.1 2.2z"/>
	<path d="m42.7 94.2c-0.4 0.9-1.5 1.1-2.4 0.6l-0.3-0.1-0.2 0.5c-0.1 0.3-0.3 0.7-0.3 0.8l0.5 0.3-0.3 0.5s-0.6-0.3-1.3-0.6c-0.3-0.1-0.7-0.3-0.7-0.3l0.2-0.5 0.5 0.1c0-0.1 0.2-0.4 0.3-0.5l1-2.2c0.1-0.3 0.2-0.6 0.3-0.7l-0.4-0.3 0.2-0.5s0.3 0.2 0.6 0.3c0.3 0.2 1 0.4 1.4 0.6 0.9 0.3 1.3 1.1 0.9 2zm-2.5 0h0.1c0.6 0.3 1.1 0.1 1.4-0.5s0.1-1-0.5-1.3c0 0-0.1 0-0.2-0.1-0.1 0.2-0.2 0.5-0.3 0.6l-0.5 1.3z"/>
	<path d="m45 98.7c-1.5-0.4-2.1-1.7-1.7-3.2 0.5-1.5 1.7-2.2 3.1-1.8 1.5 0.4 2.1 1.7 1.7 3.2-0.4 1.6-1.7 2.3-3.1 1.8zm0.2-0.6c0.8 0.2 1.4-0.2 1.7-1.5 0.4-1.3 0.2-2-0.6-2.2s-1.4 0.2-1.7 1.5c-0.4 1.3-0.2 2 0.6 2.2z"/>
	<path d="m53.3 96.7c-0.1 0.6-0.5 1-1 1.2 0.2 0.7 0.5 1.3 0.6 1.4l0.2 0.4 0.3 0.1-0.1 0.5s-0.5-0.1-1.3-0.2c0 0-0.2-0.7-0.2-0.9l-0.5-1.2h-0.1c-0.1 0-0.2 0-0.3-0.1l-0.1 0.6c-0.1 0.3-0.1 0.7-0.1 0.8l0.4 0.1-0.1 0.5s-0.6-0.1-1.3-0.2c-0.3 0-0.7-0.1-0.7-0.1v-0.5h0.5c0-0.1 0.1-0.4 0.2-0.6l0.4-2.4c0.1-0.3 0-0.6 0.1-0.8l-0.4-0.1 0.1-0.5s0.4 0.1 0.7 0.1c0.4 0.1 1.1 0.1 1.4 0.1 0.9 0.3 1.5 0.9 1.3 1.8zm-2-1.2c-0.1 0.2-0.1 0.5-0.1 0.6l-0.2 1.3h0.2c0.7 0.1 1-0.2 1.1-0.8s-0.2-0.9-0.8-1c-0.1-0.1-0.1-0.1-0.2-0.1z"/>
	<path d="m57.4 98.9v0.5s0.1 0.2 0.1 0.3c0.1 0.1 0.4 0.2 0.8 0.2s0.7-0.2 0.7-0.6c0-1-2.2-0.8-2.3-2.4 0-0.9 0.7-1.4 1.6-1.4 0.5 0 1.1 0.1 1.5 0.2l-0.1 1.4h-0.6v-0.5s0-0.1-0.1-0.2c-0.2-0.1-0.3-0.2-0.6-0.1-0.4 0-0.7 0.2-0.7 0.6 0 0.9 2.2 0.7 2.3 2.3 0 1-0.8 1.6-1.8 1.6-0.9 0-1.6-0.3-1.6-0.3l0.1-1.4 0.7-0.2z"/>
	<path d="m66.1 95.1l-0.4 0.1v0.6l0.3 1.9c0.2 1.2-0.4 2.1-1.7 2.3s-2.1-0.5-2.3-1.6l-0.3-1.7c-0.1-0.3-0.1-0.7-0.2-0.8h-0.5v-0.5s0.4 0 0.7-0.1c0.7-0.2 1.3-0.3 1.3-0.3l0.1 0.6-0.5 0.1v0.6l0.3 1.9c0.1 0.6 0.5 1.1 1.2 1s0.9-0.6 0.8-1.3l-0.3-1.7c-0.1-0.3-0.2-0.7-0.2-0.8h-0.5v-0.5s0.4 0 0.7-0.1c0.8-0.1 1.2-0.2 1.2-0.2l0.3 0.5z"/>
	<path d="m68.5 97.3s0.1 0.4 0.2 0.5l0.2 0.2c0.2 0 0.4 0.1 0.8 0s0.6-0.4 0.5-0.8c-0.3-1-2.4-0.1-2.9-1.7-0.3-0.8 0.3-1.5 1.2-1.8 0.5-0.1 1-0.2 1.5-0.2l0.3 1.3-0.6 0.1-0.2-0.5s-0.1-0.1-0.1-0.2c-0.2 0-0.3-0.1-0.6 0-0.4 0.1-0.6 0.4-0.5 0.7 0.3 0.9 2.4 0.1 2.8 1.6 0.3 0.9-0.3 1.7-1.3 2-0.9 0.3-1.7 0.2-1.7 0.2l-0.1-1.2 0.5-0.2z"/>
	<path d="m78.1 92.3c0.7 1.3 0.4 2.6-1 3.4-0.4 0.2-1 0.4-1.3 0.6l-0.6 0.4-0.3-0.4 0.4-0.3s-0.2-0.4-0.2-0.6l-1.1-2.2c-0.2-0.3-0.4-0.7-0.4-0.7l-0.4 0.1-0.2-0.5s0.3-0.1 0.6-0.3 1-0.6 1.3-0.7c1.3-0.7 2.5-0.2 3.2 1.2zm-3.5-0.3c0 0.1 0.2 0.4 0.2 0.5l1.1 2.2c0.1 0.3 0.3 0.6 0.4 0.7 0.1 0 0.2-0.1 0.4-0.2 0.9-0.5 0.9-1.4 0.4-2.4-0.5-0.9-1.2-1.6-2.1-1.1-0.2 0.1-0.3 0.2-0.4 0.3z"/>
	<path d="m82.1 87.2l-0.3 0.3c0 0.1 0.2 0.4 0.3 0.5l1.1 1.6c0.7 1 0.6 2-0.5 2.8s-2.1 0.6-2.8-0.4l-1-1.4c-0.2-0.3-0.4-0.5-0.5-0.6l-0.4 0.2-0.3-0.4 0.6-0.4c0.6-0.5 1.1-0.8 1.1-0.8l0.4 0.4-0.3 0.3c0 0.1 0.2 0.4 0.3 0.5l1.2 1.6c0.4 0.5 1 0.7 1.5 0.3 0.6-0.4 0.5-0.9 0.1-1.5l-1-1.4c-0.2-0.3-0.4-0.5-0.5-0.6l-0.4 0.2-0.3-0.4 0.6-0.4c0.6-0.5 0.9-0.7 0.9-0.7l0.2 0.3z"/>
	<path d="m82.4 86l0.5-0.5 1.3-1.3c0.1-0.1 0.5-0.6 0.5-0.6h0.2l0.8 0.8-0.3 0.4-0.3-0.3s-0.1-0.1-0.2-0.1c-0.1 0.1-0.3 0.2-0.4 0.4l-0.5 0.6 0.4 0.4 0.7 0.7c0.1 0 0.1-0.1 0.1-0.1l0.3-0.3c0.1-0.1 0.2-0.3 0.2-0.3l-0.3-0.4 0.3-0.3 0.4 0.4c0.2 0.3 0.6 0.6 0.6 0.6l-0.3 0.3-0.3-0.3s-0.2 0.2-0.4 0.3l-0.2 0.2-0.2 0.2 0.6 0.6 0.5 0.5 0.6-0.6c0.1-0.1 0.3-0.3 0.3-0.4s-0.1-0.2-0.1-0.3c-0.1-0.1-0.1-0.3-0.2-0.3l0.4-0.3 0.8 1v0.2s-0.5 0.4-0.6 0.5l-1.4 1.4-0.5 0.5-0.4-0.3 0.3-0.4c0-0.1-0.3-0.4-0.4-0.5l-1.7-1.8c-0.2-0.3-0.5-0.4-0.6-0.5l-0.4 0.3-0.1-0.4z"/>
	<path d="m89.4 79l-0.3 0.4 0.4 0.4 3 2.3-0.5 0.8-3.9-0.1 1.4 1.1c0.3 0.2 0.6 0.4 0.7 0.4l0.3-0.3 0.4 0.4s-0.3 0.3-0.7 0.9l-0.4 0.6-0.4-0.3 0.2-0.4-0.4-0.4-1.9-1.5c-0.3-0.2-0.6-0.4-0.7-0.4l-0.3 0.3-0.4-0.4 0.5-0.5 0.4-0.6h0.2s1 0.1 1.2 0.2l2.6 0.1-1.6-1.2c-0.2-0.2-0.6-0.4-0.7-0.4l-0.3 0.3-0.4-0.4 0.5-0.5c0.3-0.4 0.7-0.9 0.7-0.9l0.4 0.1zm-2 0s0.4 0.7 0.2 0.9-0.8 0.6-1 0.9c-0.1 0.1 0 0.5 0 0.5l-0.4 0.1s-0.4-0.7-0.2-0.9 0.8-0.6 1-0.9c0.1-0.1 0-0.4 0-0.4l0.4-0.2z"/>
	<path d="m95.1 78.4c-0.7 1.3-2.1 1.7-3.5 0.9s-1.8-2.1-1.1-3.5c0.7-1.3 2.1-1.7 3.5-0.9s1.8 2.1 1.1 3.5zm-0.6-0.4c0.4-0.7 0.1-1.4-1.1-2-1.1-0.6-1.9-0.6-2.3 0.1s-0.1 1.4 1.1 2c1.1 0.7 1.8 0.7 2.3-0.1z"/>
	<path d="m95.6 73.4s0.4 0.1 0.5 0.2h0.3c0.1-0.1 0.3-0.3 0.5-0.6 0.1-0.4 0.1-0.7-0.3-0.9-1-0.4-1.6 1.8-3.1 1.2-0.8-0.3-1-1.2-0.7-2 0.2-0.5 0.5-0.9 0.8-1.3l1.2 0.6-0.3 0.4-0.5-0.2h-0.3c-0.1 0.1-0.3 0.2-0.4 0.5-0.2 0.4-0.1 0.7 0.3 0.9 0.9 0.3 1.5-1.8 3-1.2 0.9 0.3 1.1 1.3 0.8 2.2s-0.9 1.4-0.9 1.4l-1.2-0.6 0.3-0.6z"/>
	<path class="st4" d="m20.9 33.7l-0.2 0.4c0.1 0.1 0.3 0.3 0.5 0.3l2.1 1.2c0.3 0.2 0.6 0.3 0.7 0.3l0.3-0.4 0.4 0.3s-0.3 0.5-0.7 1.2c-0.2 0.3-0.3 0.6-0.3 0.6l-0.4-0.2 0.2-0.4c-0.1 0-0.4-0.3-0.5-0.4l-0.8-0.5-1 1.7 0.7 0.4c0.3 0.2 0.6 0.3 0.7 0.3l0.3-0.4 0.4 0.3s-0.3 0.5-0.7 1.2c-0.2 0.3-0.3 0.6-0.3 0.6l-0.4-0.2 0.2-0.4c-0.1 0-0.4-0.3-0.5-0.4l-2.1-1.2c-0.3-0.2-0.6-0.3-0.7-0.3l-0.3 0.4-0.4-0.3 0.4-0.6c0.4-0.7 0.6-1.2 0.6-1.2l0.5 0.3-0.2 0.4c0.1 0.1 0.3 0.3 0.5 0.3l0.9 0.5 0.9-1.7-0.7-0.4c-0.3-0.2-0.6-0.3-0.7-0.3l-0.3 0.4-0.4-0.3 0.4-0.6c0.4-0.7 0.6-1.2 0.6-1.2l0.3 0.3z"/>
	<path class="st4" d="m27 33.2c-1 1.2-2.4 1.3-3.6 0.3s-1.4-2.4-0.5-3.6c1-1.2 2.4-1.3 3.6-0.3s1.4 2.4 0.5 3.6zm-0.6-0.4c0.5-0.7 0.3-1.4-0.7-2.2s-1.8-0.9-2.3-0.2-0.3 1.4 0.7 2.2c1.1 0.8 1.8 0.8 2.3 0.2z"/>
	<path class="st4" d="m29.5 23.4c0.3-0.2 0.7-0.6 0.7-0.6l0.4 0.4-0.3 0.4 0.3 0.3 2.2 2.1c0.1 0.1 0.2 0.2 0.3 0.2l0.4-0.3 0.3 0.4s-0.4 0.3-1 0.8l-0.5 0.5-0.3-0.3 0.3-0.4c-0.1-0.1-0.3-0.4-0.4-0.5l-1.7-1.8 1.4 3.6-0.5 0.4-3.3-1.9 1.6 2 0.4 0.4 0.4-0.3 0.3 0.4s-0.3 0.2-0.8 0.7l-0.5 0.5-0.3-0.3 0.3-0.4c-0.1-0.1-0.2-0.3-0.2-0.4l-2-2.3-0.3-0.3-0.4 0.3-0.3-0.4s0.4-0.3 0.6-0.5l0.7-0.7h0.2s0.7 0.5 0.9 0.6l2 1.2-1-2.2c-0.1-0.2-0.4-0.9-0.4-0.9v-0.2l0.5-0.5z"/>
	<path class="st4" d="m35.8 20.5c0.3 0.5 0.2 1.1-0.2 1.5 0.6-0.3 1.3-0.2 1.7 0.4 0.5 0.8 0.1 1.6-0.7 2-0.4 0.2-1 0.6-1.3 0.8s-0.5 0.4-0.5 0.4l-0.3-0.4 0.3-0.3c0-0.1-0.2-0.4-0.3-0.5l-1.3-2.1c-0.2-0.2-0.4-0.5-0.5-0.6l-0.4 0.2-0.3-0.5s0.3-0.1 0.6-0.3 0.9-0.7 1.2-0.8c0.7-0.4 1.6-0.5 2 0.2zm-1.8 1.1l1.3 2.1c0.2 0.3 0.4 0.6 0.4 0.7 0.1-0.1 0.2-0.1 0.3-0.2 0.4-0.3 0.5-0.7 0.2-1.2s-0.8-0.5-1.2-0.2h-0.1l-0.3-0.5c0.4-0.2 0.5-0.6 0.2-1.1-0.2-0.3-0.6-0.4-1-0.2-0.1 0.1-0.2 0.1-0.3 0.2 0.2 0 0.4 0.3 0.5 0.4z"/>
	<path class="st4" d="m40.9 18.3c0.3 0.5 0.1 1.1-0.2 1.6 0.6 0.5 1.2 0.8 1.2 0.8l0.4 0.3 0.3-0.1 0.2 0.5s-0.5 0.2-1.2 0.5c0 0-0.5-0.5-0.7-0.6l-1-0.8h-0.1c-0.1 0-0.2 0.1-0.3 0.1l0.3 0.6c0.1 0.3 0.3 0.6 0.4 0.7l0.4-0.2 0.2 0.5s-0.5 0.2-1.2 0.5c-0.3 0.1-0.6 0.3-0.6 0.3l-0.2-0.4 0.4-0.3c0-0.1-0.1-0.4-0.2-0.6l-1-2.2c-0.1-0.3-0.3-0.6-0.4-0.7l-0.6 0.3-0.2-0.5s0.4-0.1 0.7-0.3c0.4-0.2 0.9-0.5 1.3-0.7 0.9-0.4 1.7-0.2 2.1 0.7zm-2.4 0.1c0.1 0.2 0.2 0.5 0.2 0.6l0.5 1.1 0.2-0.1c0.6-0.3 0.7-0.7 0.4-1.3s-0.6-0.7-1.2-0.4c0 0 0 0.1-0.1 0.1z"/>
	<path class="st4" d="m42.2 16.2s0.4-0.1 0.7-0.2l1.8-0.6c0.1 0 0.7-0.3 0.7-0.3l0.2 0.1 0.4 1-0.5 0.2c0-0.1-0.1-0.3-0.2-0.4l-0.1-0.1c-0.1 0-0.3 0.1-0.5 0.1l-0.7 0.2c0 0.1 0.1 0.4 0.1 0.5l0.3 1h0.2l0.4-0.1c0.1 0 0.3-0.2 0.3-0.2l-0.1-0.4 0.4-0.1s0.1 0.4 0.2 0.6c0.1 0.3 0.3 0.8 0.3 0.8l-0.4 0.2-0.2-0.4s-0.3 0.1-0.4 0.1l-0.2 0.1-0.2 0.1 0.3 0.8c0.1 0.3 0.2 0.6 0.2 0.7l0.8-0.3c0.2-0.1 0.4-0.1 0.5-0.2v-0.3-0.4l0.5-0.1 0.3 1.2-0.3 0.2s-0.6 0.2-0.8 0.2l-1.9 0.6c-0.3 0.1-0.6 0.2-0.6 0.2l-0.2-0.5 0.4-0.2c0-0.1-0.1-0.5-0.1-0.6l-0.7-2.3c-0.1-0.3-0.2-0.6-0.3-0.7l-0.5 0.1-0.1-0.6z"/>
	<path class="st4" d="m48.7 18s0.1 0.4 0.1 0.5c0 0 0.1 0.2 0.1 0.3 0.2 0 0.4 0.1 0.8 0.1 0.4-0.1 0.7-0.3 0.6-0.7-0.2-1-2.3-0.4-2.6-2-0.2-0.8 0.4-1.5 1.4-1.7 0.5-0.1 1.1-0.1 1.6 0l0.2 1.3-0.6 0.1-0.1-0.5s-0.1-0.1-0.1-0.2c-0.2-0.1-0.3-0.1-0.6-0.1-0.4 0.1-0.6 0.3-0.6 0.7 0.2 0.9 2.3 0.4 2.6 1.9 0.2 0.9-0.5 1.7-1.5 1.8-0.9 0.2-1.7 0-1.7 0l-0.2-1.5h0.6z"/>
	<path class="st4" d="m59.3 16.1c0 1.5-0.8 2.5-2.4 2.5h-1.5-0.7v-0.5l0.5-0.1s0.1-0.5 0.1-0.6v-2.4c0-0.4-0.1-0.8-0.1-0.8l-0.5-0.1v-0.5h0.7c0.3 0 1.1-0.1 1.5-0.1 1.5 0.1 2.4 1.1 2.4 2.6zm-3.1-1.8v0.6 2.4 0.8h0.5c1 0 1.4-0.9 1.4-2s-0.4-1.9-1.4-1.9c-0.1 0-0.3 0-0.5 0.1z"/>
	<path class="st4" d="m61.1 13.8s0.4 0.1 0.7 0.1l1.9 0.2h0.8l0.1 0.1-0.1 1.1h-0.5v-0.4-0.2c-0.1 0-0.3-0.1-0.5-0.1l-0.8-0.1c0 0.1-0.1 0.4-0.1 0.6l-0.1 1h0.2l0.4 0.1h0.3l0.1-0.4 0.4 0.1s-0.1 0.4-0.1 0.6c0 0.3-0.1 0.9-0.1 0.9h-0.5v-0.4s-0.3-0.1-0.4-0.1h-0.2-0.2l-0.1 0.8c0 0.3-0.1 0.6-0.1 0.7l0.9 0.1h0.5c0.1-0.1 0.1-0.2 0.2-0.3 0-0.1 0.1-0.3 0.1-0.4l0.5 0.1-0.4 1.2-0.1 0.1s-0.6-0.1-0.8-0.1l-2-0.3c-0.3 0-0.7-0.1-0.7-0.1v-0.5h0.5c0-0.1 0.1-0.5 0.1-0.6l0.3-2.4c0-0.3 0.1-0.6 0-0.8l-0.3-0.1 0.1-0.5z"/>
	<path class="st4" d="m71.8 17.4c-0.2 0.6-0.7 0.9-1.3 0.8 0.6 0.3 1 0.8 0.8 1.5-0.3 0.9-1.1 1.1-2 0.8-0.4-0.1-1.1-0.4-1.5-0.5-0.3-0.1-0.6-0.2-0.6-0.2l0.1-0.5h0.4c0-0.1 0.2-0.4 0.2-0.6l0.7-2.3c0.1-0.3 0.2-0.6 0.2-0.8l-0.4-0.2 0.2-0.5s0.3 0.1 0.6 0.2 1.1 0.3 1.4 0.4c0.8 0.5 1.4 1.2 1.2 1.9zm-2.1-0.6l-0.7 2.3c-0.1 0.3-0.2 0.7-0.2 0.8 0.1 0.1 0.2 0.1 0.4 0.1 0.5 0.2 0.9-0.1 1.1-0.6 0.2-0.6-0.1-0.9-0.6-1.1h-0.1l0.2-0.6c0.4 0.1 0.8 0 1-0.6 0.1-0.4-0.1-0.8-0.5-0.9-0.1 0-0.2-0.1-0.3-0.1-0.1 0.1-0.2 0.5-0.3 0.7z"/>
	<path class="st4" d="m73.9 22.6c-1.4-0.7-1.8-2-1.1-3.4s2-1.9 3.4-1.3c1.4 0.7 1.8 2 1.1 3.4-0.8 1.5-2.1 2-3.4 1.3zm0.2-0.6c0.8 0.4 1.4 0 2-1.2s0.5-1.9-0.3-2.3-1.4 0-2 1.2c-0.5 1.2-0.4 1.9 0.3 2.3z"/>
	<path class="st4" d="m81.8 22.9c0.1-0.1 0.2-0.3 0.2-0.4v-0.2c-0.1-0.1-0.2-0.2-0.4-0.3l-0.3-0.2-0.4 0.4-1.3 2c-0.2 0.3-0.4 0.6-0.4 0.7l0.4 0.3-0.3 0.4s-0.5-0.3-1.1-0.8l-0.6-0.4 0.2-0.4 0.4 0.2c0-0.1 0.3-0.4 0.4-0.5l1.3-2c0.2-0.3 0.3-0.6 0.4-0.7l-0.3-0.2c-0.2-0.1-0.4-0.2-0.5-0.3-0.1 0-0.1 0.1-0.1 0.1-0.1 0.1-0.3 0.3-0.3 0.4l-0.4-0.3 0.7-0.9h0.2s0.5 0.4 0.6 0.5l1.9 1.3c0.1 0.1 0.7 0.4 0.7 0.4v0.2l-0.6 1-0.4-0.3z"/>
	<path class="st4" d="m84.2 23.1l0.5 0.5 1.4 1.2c0.1 0.1 0.7 0.5 0.7 0.5v0.2l-0.7 0.9-0.4-0.4c0.1-0.1 0.2-0.3 0.2-0.4 0 0 0-0.1 0.1-0.2l-0.4-0.4-0.6-0.4-0.4 0.4-0.6 0.7c0 0.1 0.1 0.1 0.1 0.1l0.3 0.3c0.1 0.1 0.3 0.2 0.3 0.2l0.3-0.3 0.3 0.3-0.4 0.4c-0.2 0.3-0.6 0.7-0.6 0.7l-0.3-0.3 0.2-0.4-0.3-0.3-0.2-0.1s-0.1-0.1-0.2-0.1l-0.5 0.6c-0.2 0.2-0.4 0.5-0.5 0.6l0.7 0.6c0.2 0.1 0.3 0.2 0.4 0.3 0.1 0 0.2-0.1 0.3-0.1 0.1-0.1 0.2-0.2 0.3-0.2l0.3 0.3-0.9 0.9h-0.2s-0.5-0.5-0.6-0.5l-1.5-1.3-0.6-0.4 0.3-0.4 0.4 0.2c0.1 0 0.3-0.3 0.4-0.4l1.6-1.9c0.2-0.3 0.4-0.5 0.5-0.6l-0.3-0.4 0.6-0.4z"/>
	<path class="st4" d="m89.3 28.7l-0.3-0.3c-0.1 0.1-0.4 0.2-0.5 0.3l-1.8 1.6-0.5 0.5 0.4 0.5 0.4 0.4c0.1 0 0.3-0.1 0.3-0.1 0.1 0 0.3-0.1 0.4-0.2l0.3 0.4-1 0.8h-0.2s-0.4-0.5-0.5-0.6l-1.2-1.3-0.5-0.5 0.3-0.4 0.4 0.3c0.1 0 0.4-0.3 0.5-0.4l1.8-1.6c0.3-0.2 0.5-0.5 0.5-0.6l-0.2-0.4 0.4-0.3s0.2 0.3 0.4 0.5c0.5 0.6 0.9 1 0.9 1l-0.3 0.4z"/>
	<path class="st4" d="m92.4 32.6l-0.3-0.3c-0.1 0-0.4 0.2-0.5 0.3l-2 1.4c-0.2 0.2-0.5 0.4-0.6 0.5l0.4 0.5c0.1 0.2 0.3 0.3 0.4 0.4 0.1 0 0.3 0 0.3-0.1 0.1 0 0.3-0.1 0.4-0.2l0.3 0.4-1.1 0.6h-0.2s-0.4-0.5-0.4-0.7l-1.1-1.4c-0.2-0.3-0.4-0.5-0.4-0.5l0.4-0.3 0.3 0.3c0.1 0 0.4-0.2 0.5-0.3l2-1.4c0.3-0.2 0.5-0.4 0.6-0.5l-0.2-0.4 0.4-0.3 0.4 0.6c0.5 0.6 0.8 1.1 0.8 1.1l-0.4 0.3z"/>
	<path class="st4" d="m92.2 40.9s-0.1-0.3-0.2-0.5c-0.4-0.7-0.7-1.2-0.7-1.2l0.4-0.3 0.3 0.3 0.3-0.2 0.3-0.3-0.6-1.2-0.5 0.1-0.3 0.1 0.1 0.4-0.4 0.2s-0.2-0.4-0.3-0.7c-0.3-0.5-0.5-0.8-0.5-0.8l0.4-0.3 0.2 0.3h0.7l4-0.7 0.4 0.7-3 3.2-0.3 0.3 0.1 0.4-0.4 0.2zm0.2-3.4l0.5 0.8 1.2-1.2-1.7 0.4z"/>
	<path d="m59.3 59.6c7.7-3.7 8.4-6.8 8.9-10.8 0.5-4.1-3.3-15.1-3.3-15.1h-15.6s-3.8 11.1-3.3 15.1c0.5 4.1 1.3 7.4 8.9 11.1 1.3 0.9 1.3 6.1 1.3 6.9 0 1.4 0 7.4-0.2 10.8-0.1 1.5-5.7 1.2-6.8 1.6s-1 0.7-0.5 0.7h8.3 0.1 8.3c0.5 0 0.6-0.4-0.5-0.7s-5.5 0.3-6.5-1.5c-0.6-1-0.5-11.6-0.4-13 0-1.5-0.2-4.1 1.3-5.1zm4.4-10.6c0.4-3.1-2.1-11.4-3.1-14.8h2.7s3.6 10.6 3.2 14c-0.4 3.3-1 5.8-7 8.9 3.4-2.6 3.9-5.1 4.2-8.1z"/>
</svg>
